<?xml version="1.0" encoding="UTF-8"?>
<svg viewBox="0 0 100 100" xmlns="http://www.w3.org/2000/svg">
  <defs>
    <linearGradient id="bg" x1="0%" y1="0%" x2="100%" y2="100%">
      <stop offset="0%" stop-color="#1a2c5b"/>
      <stop offset="100%" stop-color="#0f1c3f"/>
    </linearGradient>
    <linearGradient id="suit" x1="0%" y1="0%" x2="0%" y2="100%">
      <stop offset="0%" stop-color="#d4b88a"/>
      <stop offset="100%" stop-color="#a08854"/>
    </linearGradient>
    <linearGradient id="skin" x1="0%" y1="0%" x2="0%" y2="100%">
      <stop offset="0%" stop-color="#6b452f"/>
      <stop offset="100%" stop-color="#4a2f1f"/>
    </linearGradient>
    <radialGradient id="shine" cx="35%" cy="35%" r="60%">
      <stop offset="0%" stop-color="rgba(255,255,255,0.18)"/>
      <stop offset="100%" stop-color="rgba(255,255,255,0)"/>
    </radialGradient>
  </defs>

  <circle cx="50" cy="50" r="50" fill="url(#bg)"/>

  <path d="M 0 100 Q 5 78, 28 73 L 72 73 Q 95 78, 100 100 Z" fill="url(#suit)"/>
  <path d="M 30 73 Q 30 76, 28 78 L 50 100 L 72 78 Q 70 76, 70 73 Z" fill="#fafafa"/>

  <path d="M 47 73 L 53 73 L 55 100 L 50 100 L 45 100 Z" fill="#3a2818"/>
  <path d="M 47 73 L 53 73 L 54 78 L 50 80 L 46 78 Z" fill="#5a3e22"/>

  <ellipse cx="50" cy="42" rx="22" ry="26" fill="url(#skin)"/>

  <path d="M 28 30 Q 50 18, 72 30 L 72 38 Q 65 32, 50 31 Q 35 32, 28 38 Z" fill="#1a0f08"/>

  <path d="M 32 35 Q 30 40, 30 47" stroke="#1a0f08" stroke-width="2" fill="none" stroke-linecap="round" opacity="0.7"/>
  <path d="M 68 35 Q 70 40, 70 47" stroke="#1a0f08" stroke-width="2" fill="none" stroke-linecap="round" opacity="0.7"/>

  <path d="M 30 50 Q 32 64, 50 70 Q 68 64, 70 50 Q 65 60, 50 62 Q 35 60, 30 50 Z" fill="#1a0f08"/>
  <ellipse cx="50" cy="60" rx="14" ry="6" fill="#1a0f08"/>

  <path d="M 38 38 Q 41 36, 45 38" stroke="#1a0f08" stroke-width="1.6" fill="none" stroke-linecap="round"/>
  <path d="M 55 38 Q 59 36, 62 38" stroke="#1a0f08" stroke-width="1.6" fill="none" stroke-linecap="round"/>

  <ellipse cx="42" cy="44" rx="2.2" ry="2.6" fill="white"/>
  <ellipse cx="58" cy="44" rx="2.2" ry="2.6" fill="white"/>
  <circle cx="42" cy="45" r="1.4" fill="#1a0f08"/>
  <circle cx="58" cy="45" r="1.4" fill="#1a0f08"/>
  <circle cx="41.5" cy="44.3" r="0.5" fill="white"/>
  <circle cx="57.5" cy="44.3" r="0.5" fill="white"/>

  <path d="M 49 50 Q 50 53, 51 50" stroke="#3a1f10" stroke-width="0.8" fill="none"/>

  <path d="M 45 56 Q 50 58, 55 56" stroke="#fafafa" stroke-width="1.2" fill="none" stroke-linecap="round"/>

  <circle cx="50" cy="50" r="50" fill="url(#shine)" opacity="0.4"/>
</svg>
